<svg xmlns="http://www.w3.org/2000/svg" xmlns:xlink="http://www.w3.org/1999/xlink" width="300" zoomAndPan="magnify" viewBox="0 0 224.87999 225" height="300" preserveAspectRatio="xMidYMid meet" version="1.0"><defs><clipPath id="a313eb3b33"><path d="M 0 0.0585938 L 224.761719 0.0585938 L 224.761719 224.9375 L 0 224.9375 Z M 0 0.0585938 " clip-rule="nonzero"/></clipPath><clipPath id="5e2a3e86f2"><path d="M 55.503906 48.59375 L 153 48.59375 L 153 176.773438 L 55.503906 176.773438 Z M 55.503906 48.59375 " clip-rule="nonzero"/></clipPath><clipPath id="3f714827d8"><path d="M 114 102 L 169.445312 102 L 169.445312 175 L 114 175 Z M 114 102 " clip-rule="nonzero"/></clipPath></defs><g clip-path="url(#a313eb3b33)"><path fill="#ffffff" d="M 0 0.0585938 L 224.878906 0.0585938 L 224.878906 224.941406 L 0 224.941406 Z M 0 0.0585938 " fill-opacity="1" fill-rule="nonzero"/><path fill="#ffffff" d="M 0 0.0585938 L 224.878906 0.0585938 L 224.878906 224.941406 L 0 224.941406 Z M 0 0.0585938 " fill-opacity="1" fill-rule="nonzero"/></g><g clip-path="url(#5e2a3e86f2)"><path fill="#38b6ff" d="M 152.640625 72.976562 L 152.640625 117.691406 C 152.640625 148.359375 133.824219 165.292969 105.429688 176.140625 C 105.007812 176.300781 104.554688 176.398438 104.101562 176.398438 C 103.648438 176.398438 103.195312 176.300781 102.773438 176.140625 C 82.46875 168.433594 55.53125 153.960938 55.53125 117.691406 L 55.53125 72.976562 C 55.53125 70.902344 57.214844 69.25 59.253906 69.25 C 79.976562 69.25 101.347656 50.082031 101.574219 49.886719 C 103 48.59375 105.167969 48.59375 106.59375 49.886719 C 106.820312 50.082031 128.222656 69.25 148.914062 69.25 C 150.957031 69.25 152.640625 70.902344 152.640625 72.976562 Z M 152.640625 72.976562 " fill-opacity="1" fill-rule="nonzero"/></g><g clip-path="url(#3f714827d8)"><path fill="#004aad" d="M 169.347656 116.460938 L 169.347656 141.6875 C 169.347656 158.976562 158.757812 168.53125 142.730469 174.652344 C 142.503906 174.746094 142.246094 174.78125 141.984375 174.78125 C 141.726562 174.78125 141.46875 174.746094 141.242188 174.652344 C 129.8125 170.277344 114.625 162.121094 114.625 141.6875 L 114.625 116.460938 C 114.625 115.296875 115.5625 114.359375 116.730469 114.359375 C 128.417969 114.359375 140.464844 103.542969 140.59375 103.445312 C 141.402344 102.734375 142.632812 102.734375 143.410156 103.445312 C 143.539062 103.542969 155.617188 114.359375 167.277344 114.359375 C 168.410156 114.359375 169.347656 115.296875 169.347656 116.460938 Z M 169.347656 116.460938 " fill-opacity="1" fill-rule="nonzero"/></g><path fill="#5271ff" d="M 152.640625 117.691406 C 152.640625 140.261719 142.472656 155.382812 125.761719 166.132812 C 119.449219 160.890625 114.59375 153.246094 114.59375 141.6875 L 114.59375 116.460938 C 114.59375 115.296875 115.53125 114.359375 116.695312 114.359375 C 128.386719 114.359375 140.433594 103.542969 140.5625 103.445312 C 141.371094 102.734375 142.601562 102.734375 143.378906 103.445312 C 143.441406 103.511719 147.265625 106.910156 152.640625 109.890625 Z M 152.640625 117.691406 " fill-opacity="1" fill-rule="nonzero"/></svg>