<svg id="Layer_1" enable-background="new 0 0 500 500" viewBox="0 0 500 500" xmlns="http://www.w3.org/2000/svg" xmlns:xlink="http://www.w3.org/1999/xlink"><linearGradient id="lg1"><stop offset="0" stop-color="#00f1ff"/><stop offset="1" stop-color="#6c13d3"/></linearGradient><linearGradient id="SVGID_1_" gradientUnits="userSpaceOnUse" x1="46.961" x2="329.886" xlink:href="#lg1" y1="43.182" y2="428.873"/><linearGradient id="SVGID_00000166666189878358950710000014494182893327238845_" gradientUnits="userSpaceOnUse" x1="93.733" x2="376.658" xlink:href="#lg1" y1="8.873" y2="394.564"/><linearGradient id="SVGID_00000042009333920604841110000011421027338073467305_" gradientUnits="userSpaceOnUse" x1="72.592" x2="355.516" xlink:href="#lg1" y1="24.381" y2="410.072"/><linearGradient id="SVGID_00000036954269259744431520000014877569614360677297_" gradientUnits="userSpaceOnUse" x1="89.291" x2="372.215" xlink:href="#lg1" y1="12.132" y2="397.822"/><linearGradient id="SVGID_00000070102595052758242340000010869585338123708589_" gradientUnits="userSpaceOnUse" x1="68.149" x2="351.074" xlink:href="#lg1" y1="27.64" y2="413.331"/><linearGradient id="SVGID_00000152261821574437664910000009629943442561984674_" gradientUnits="userSpaceOnUse" x1="153.976" x2="436.9" xlink:href="#lg1" y1="-35.318" y2="350.373"/><linearGradient id="SVGID_00000062910274554447525930000013148354045515489180_" gradientUnits="userSpaceOnUse" x1="29.505" x2="312.429" xlink:href="#lg1" y1="55.988" y2="441.679"/><g><path d="m447.9458 352.6123-25.8496-79.272c-1.4351-4.4014-4.7261-7.9038-9.0298-9.6099-4.3027-1.7056-9.1006-1.4097-13.1616.812l-14.373 7.8647v-139.6273c0-8.667-3.375-16.8154-9.5034-22.9438l-67.9106-67.9106c-6.1284-6.1284-14.2769-9.5034-22.9438-9.5034h-201.4377c-17.8916 0-32.4478 14.5562-32.4478 32.4478v356.1948c0 17.8916 14.5562 32.4478 32.4478 32.4478h171.9238c.3704 0 .7318-.0378 1.0817-.1077.9658 3.1791 2.801 6.1327 5.5067 8.449 3.3989 2.9097 7.5762 4.333 11.7339 4.333 5.0981 0 10.1665-2.1406 13.7344-6.3076l4.1451-4.8418c7.4014 3.751 14.9092 7.3858 22.3802 10.813 2.5527 1.1709 5.2358 1.7275 7.8818 1.7275 6.8242-.0005 13.3911-3.7051 16.7661-10.1157 1.5925-3.025 2.3082-6.3263 2.1583-9.634.4066.0283.813.0475 1.2187.0475 5.5347 0 10.917-2.6196 14.3228-7.3911 1.8577-2.6027 2.9476-5.6304 3.2114-8.7495 1.6237.4708 3.2906.7079 4.9517.7079 5.1558 0 10.2412-2.2202 13.7051-6.356 3.1102-3.7137 4.5339-8.4678 4.0447-13.2377 2.4705-.2303 4.9124-.9337 7.1863-2.1285 5.584-2.9346 9.2852-8.3921 9.9009-14.5981.2921-2.9395-.108-5.7915-1.1752-8.527l14.1888-12.0167c2.6919 2.0349 5.9774 3.1317 9.3355 3.1317 2.3882 0 4.8135-.5547 7.0854-1.7192l11.251-5.7681c6.8208-3.4967 10.0469-11.3234 7.6704-18.611zm-56.0276 26.0696c-17.5601-16.364-74.3906-50.578-81.4235-54.7893-2.1118-1.2651-4.8072-.9717-6.5986.7168l-29.8902 28.1806c-5.1284 4.3638-11.9053 6.1978-18.1489 4.9053-2.6997-.5586-3.9141-1.3643-4.3062-1.875.1538-2.7832 4.6865-13.5322 21.2593-36.5747 2.9858-4.1514 7.0776-7.3384 11.8325-9.2168l31.4604-12.4297c4.7026-1.8584 10.0225-1.6831 14.5933.4814l32.6982 15.4814c1.1772.5566 2.5142.6787 3.7705.3433l7.7183-2.0582 31.2059 54.8331zm-24.5964-261.9959h-65.4858v-65.4858zm-305.0332 304.3785v-356.1949c0-11.8262 9.6216-21.4478 21.4478-21.4478h201.4375c1.9418 0 3.8378.2765 5.6621.7731v77.9911c0 3.0376 2.4624 5.5 5.5 5.5h77.5648c.4007 1.6501.631 3.3524.631 5.0938v145.6464l-.3999.2188c-3.6772 2.0122-6.332 5.3418-7.4761 9.3745-1.1436 4.0327-.6318 8.2603 1.4414 11.9033l1.1608 2.0397-2.9787.7943-30.876-14.6187c-7.3101-3.4609-15.8184-3.7412-23.3423-.7695l-31.46 12.4297c-2.1227.8385-4.1386 1.8813-6.0544 3.0736l-35.2686-4.6569c1.3517-3.2233 1.5843-6.7776.6151-10.1955-1.144-4.0327-3.7988-7.3623-7.4766-9.3745l-25.7725-14.103c-4.061-2.2207-8.8584-2.5176-13.1616-.8115-4.3037 1.7061-7.5947 5.2085-9.0298 9.6099l-25.8496 79.272c-2.3765 7.2876.8496 15.1143 7.6699 18.6108l11.2515 5.7676c2.2725 1.165 4.6968 1.7197 7.0854 1.7197 2.3558 0 4.6765-.5399 6.7814-1.5644 2.1355 4.4139 5.0649 8.9333 8.7725 13.5223l-1.9426 2.2692c-6.4761 7.5659-5.5913 18.9912 1.9741 25.4683 3.3022 2.8267 7.4175 4.3428 11.7183 4.3428.4727 0 .9487-.0186 1.4253-.0557.1708-.0132.3365-.0463.5061-.0641.565 4.2579 2.6173 8.3329 6.1292 11.3395 3.3984 2.9097 7.5752 4.333 11.7329 4.333 1.1599 0 2.3159-.1255 3.4554-.3457.3363 1.5958.8703 3.1276 1.611 4.5566h-153.0371c-11.8261-.0001-21.4477-9.6217-21.4477-21.4478zm126.2314-55.6446c-1.1978 2.103-3.8232 2.8872-5.9771 1.7822l-11.252-5.7681c-1.9829-1.0166-2.9209-3.2925-2.23-5.4116l25.8496-79.272c.5713-1.752 1.8901-2.5029 2.6255-2.7944.3862-.1533.9761-.3242 1.6836-.3242.6401 0 1.376.1401 2.144.5601l25.772 14.1025c1.0698.5854 1.8418 1.5537 2.1743 2.7266.333 1.1729.1841 2.4019-.4189 3.4614l-3.0302 5.3245c-.0127.0214-.0245.0435-.037.0651zm86.896 53.2393-17.2373 20.1343c-2.5322 2.9585-7 3.3037-9.958.772-1.4331-1.2271-2.3027-2.9385-2.4487-4.8193-.1309-1.6918.3423-3.3359 1.3308-4.6924l17.9238-20.9362c1.3676-1.39 3.1904-2.1111 5.0296-2.1111 1.6255 0 3.2593.5571 4.5884 1.6948 2.9579 2.5321 3.3041 6.9994.7714 9.9579zm-15.896-20.0244-2.8187 3.2924c-.1217.1339-.2533.2538-.3718.3922l-17.2373 20.1343c-.1229.1435-.2268.2982-.3447.4447l-1.6622 1.9415c-1.2266 1.4331-2.9385 2.3027-4.8193 2.4482-1.8809.1494-3.7051-.4487-5.1387-1.6763-2.9585-2.5327-3.3047-7-.772-9.9585l22.4341-26.2051c1.395-1.6294 3.3765-2.4663 5.3701-2.4663 1.6255 0 3.2593.5571 4.5879 1.6948 2.9587 2.5328 3.3053 7.0001.7726 9.9581zm-24.9756-9.4917-17.2368 20.1343c-1.2271 1.4331-2.9385 2.3027-4.8193 2.4487-1.8813.1436-3.7061-.4497-5.1392-1.6768-2.958-2.5327-3.3042-7-.7715-9.958 0-.0005 0-.0005 0-.0005l17.2368-20.1338c1.3945-1.6299 3.3765-2.4668 5.3701-2.4668 1.6255 0 3.2593.5571 4.5884 1.6948 1.4331 1.2266 2.3022 2.938 2.4482 4.8188.1456 1.881-.4496 3.7062-1.6767 5.1393zm34.8575 64.354c-2.958-2.5322-3.3042-7-.7715-9.9585l11.0522-12.9097c2.5317-2.958 6.999-3.3042 9.958-.7715 1.4331 1.2271 2.3027 2.9385 2.4487 4.8193.1455 1.8809-.4497 3.7061-1.6768 5.1392l-11.0522 12.9097c-2.5322 2.958-6.999 3.3042-9.9584.7715zm119.2417-58.4615c-.2534 2.5532-1.7373 4.7207-4.0718 5.9478-2.459 1.292-5.3667 1.2695-7.7783-.061l-3.3853-1.8678c-.0005-.0002-.0009-.0006-.0014-.0009l-23.2583-12.8325c-.0018-.001-.0037-.0017-.0055-.0027l-32.8925-18.1477c-2.6577-1.4673-6.0049-.5015-7.4727 2.1587-1.4673 2.6592-.5005 6.0049 2.1592 7.4722l32.8964 18.15c.0002.0001.0004.0002.0005.0004l23.2588 12.833c1.7891.9868 3.0303 2.7046 3.4058 4.7134s-.1621 4.0591-1.4741 5.626c-2.0508 2.4497-5.5879 3.1421-8.4121 1.6455l-9.7658-5.1735c-.438-.2848-.8817-.5626-1.3475-.8094l-31.3247-16.5947c-.2804-.1484-.5688-.264-.8604-.3599l-8.0703-4.2753c-2.6836-1.4204-6.0127-.3975-7.4351 2.2856-1.4219 2.6841-.3984 6.0127 2.2856 7.4351l41.113 21.7799c1.2453.9217 2.1177 2.2275 2.4832 3.7743.4443 1.8828.0703 3.7871-1.0537 5.3618-1.8755 2.6279-5.3481 3.5176-8.2559 2.1147l-6.4972-3.1339c-.8898-.6102-1.8257-1.1659-2.829-1.6278l-11.9781-5.5143-7.2792-3.5111c-2.7368-1.3203-6.0239-.1719-7.3433 2.564-1.3198 2.7363-.1719 6.0239 2.564 7.3433l21.1869 10.2194c1.1157.9227 1.9634 2.1313 2.4435 3.5452.707 2.0815.5322 4.2993-.4917 6.2446-1.9624 3.7271-6.4966 5.2715-10.3281 3.5142-6.5477-3.0036-13.128-6.1667-19.6353-9.4302 2.8376-3.5785 4.2178-8.017 3.8628-12.5956-.373-4.8101-2.5967-9.1875-6.2622-12.3252-2.6542-2.2725-5.7856-3.6189-9.0096-4.1083 1.1404-6.1376-.9127-12.7042-5.986-17.048-2.8461-2.4365-6.2383-3.8297-9.7078-4.2188.6613-5.7675-1.457-11.7542-6.1891-15.8057-5.7046-4.8842-13.6031-5.5767-19.9216-2.3794-1.0438-2.6666-2.7305-5.124-5.0535-7.1128-7.5664-6.4775-18.9902-5.5898-25.4683 1.9751l-7.9948 9.3387c-3.7405-4.8779-6.3801-9.5413-7.8758-13.9293l33.9528-59.6597 30.5255 4.0306c-.0597.0817-.1263.1571-.1854.2393-26.5435 36.9048-23.9512 43.5713-22.7056 46.7744 1.2139 3.1221 4.3599 7.1953 12.4536 8.8696 9.5986 1.9878 19.9321-.7852 27.6396-7.4141.064-.0547.126-.1104.187-.168l26.9526-25.4111c28.7368 17.3555 72.7051 45.605 78.5771 53.9502 1.3075 1.8569 1.85 3.6918 1.6591 5.6117zm46.6137-33.6015-11.2515 5.7686c-2.1548 1.103-4.7803.3203-5.9771-1.7827l-.0715-.1255c-.0015-.0029-.0032-.0056-.0048-.0084l-40.2949-70.8035c-.603-1.0596-.752-2.2886-.4189-3.4614.3325-1.1729 1.1045-2.1411 2.1738-2.7266l25.7725-14.1021c1.6167-.8848 3.0913-.5273 3.8276-.2363.7354.2915 2.0542 1.0425 2.6255 2.7944l25.8496 79.272c.6911 2.119-.2469 4.3949-2.2303 5.4115z" fill="url(#SVGID_1_)"/><path d="m101.5107 99.5625h109.4273c3.0376 0 5.5-2.4624 5.5-5.5s-2.4624-5.5-5.5-5.5h-109.4273c-3.0376 0-5.5 2.4624-5.5 5.5s2.4624 5.5 5.5 5.5z" fill="url(#SVGID_00000166666189878358950710000014494182893327238845_)"/><path d="m101.5107 143.8916h109.4273c3.0376 0 5.5-2.4624 5.5-5.5s-2.4624-5.5-5.5-5.5h-109.4273c-3.0376 0-5.5 2.4624-5.5 5.5s2.4624 5.5 5.5 5.5z" fill="url(#SVGID_00000042009333920604841110000011421027338073467305_)"/><path d="m101.5107 188.2207h225.832c3.0376 0 5.5-2.4624 5.5-5.5s-2.4624-5.5-5.5-5.5h-225.832c-3.0376 0-5.5 2.4624-5.5 5.5s2.4624 5.5 5.5 5.5z" fill="url(#SVGID_00000036954269259744431520000014877569614360677297_)"/><path d="m332.8428 227.0498c0-3.0376-2.4624-5.5-5.5-5.5h-225.832c-3.0376 0-5.5 2.4624-5.5 5.5s2.4624 5.5 5.5 5.5h225.832c3.0376 0 5.5-2.4624 5.5-5.5z" fill="url(#SVGID_00000070102595052758242340000010869585338123708589_)"/><path d="m403.3203 295.3145c-1.0791-2.8389-4.2539-4.2656-7.0957-3.1855-2.8389 1.0796-4.2656 4.2563-3.1855 7.0957l.5024 1.3213c.835 2.1958 2.9238 3.5464 5.1416 3.5464.6494 0 1.3105-.1162 1.9541-.3608 2.8389-1.0796 4.2656-4.2563 3.1855-7.0957z" fill="url(#SVGID_00000152261821574437664910000009629943442561984674_)"/><path d="m209.5552 291.8096c-2.6509-1.4834-6.002-.5391-7.4863 2.1113l-.7402 1.3218c-1.4839 2.6504-.5391 6.002 2.1113 7.4863.8506.4761 1.7725.7021 2.6826.7021 1.9258 0 3.7954-1.0137 4.8037-2.8135l.7402-1.3218c1.4839-2.6503.5391-6.0019-2.1113-7.4862z" fill="url(#SVGID_00000062910274554447525930000013148354045515489180_)"/></g></svg>