<svg id="Layer_1" enable-background="new 0 0 500 500" viewBox="0 0 500 500" xmlns="http://www.w3.org/2000/svg"><g clip-rule="evenodd" fill-rule="evenodd"><path d="m85.573 206.317v-151.084c0-12.821 10.442-23.263 23.263-23.263h193.447c12.821 0 23.263 10.442 23.263 23.263v30.997h-13.556v-30.997c0-5.339-4.369-9.708-9.708-9.708h-193.446c-5.339 0-9.708 4.369-9.708 9.708v151.084z" fill="#4187b5"/><path d="m175.805 339.26h56.039v-31.523h-47.797c-7.378 0-13.395 6.017-13.395 13.395v12.975c0 2.838 2.315 5.153 5.153 5.153z" fill="#ffbf31"/><path d="m461.731 339.26h-56.039v-31.523h47.797c7.378 0 13.395 6.017 13.395 13.395v12.975c0 2.838-2.315 5.153-5.153 5.153z" fill="#ffbf31"/><path d="m200.299 411.371h41.207v47.973c0 4.778-3.909 8.686-8.687 8.686h-23.833c-4.778 0-8.687-3.909-8.687-8.686z" fill="#cf8c48"/><path d="m396.03 411.371h41.207v47.973c0 4.778-3.909 8.686-8.686 8.686h-23.834c-4.778 0-8.686-3.909-8.686-8.686v-47.973z" fill="#cf8c48"/><path d="m439.795 354.712-37.362-91.336c-3.396-8.304-11.055-13.445-20.026-13.445h-127.278c-8.971 0-16.629 5.141-20.026 13.445l-37.362 91.336z" fill="#88c8fe"/><path d="m364.216 288.243c24.399 0 44.18 19.782 44.18 44.18s-19.782 44.18-44.18 44.18-44.18-19.782-44.18-44.18 19.781-44.18 44.18-44.18zm21.655 22.525c-11.959-11.959-31.352-11.959-43.311 0-11.958 11.958-11.959 31.352 0 43.311s31.352 11.958 43.311 0c11.959-11.959 11.959-31.353 0-43.311z" fill="#4187b5"/><path d="m195.666 339.26h246.204c7.378 0 13.395 6.017 13.395 13.395v57.317c0 6.744-4.911 12.367-11.595 13.273l-124.902 16.937-124.902-16.937c-6.683-.906-11.595-6.529-11.595-13.273v-57.317c0-7.378 6.017-13.395 13.395-13.395z" fill="#4187b5"/><g fill="#ffbf31"><path d="m365.152 433.893-46.384 6.29-46.384-6.29 8.426-25.933c1.824-5.613 6.837-9.256 12.739-9.256h50.436c5.902 0 10.915 3.642 12.739 9.256z"/><circle cx="234.015" cy="381.042" r="17.792"/><ellipse cx="403.521" cy="381.042" rx="17.792" ry="17.792" transform="matrix(.957 -.29 .29 .957 -93.105 133.282)"/><ellipse cx="318.768" cy="141.69" rx="72.112" ry="72.111" transform="matrix(.23 -.973 .973 .23 107.631 419.376)"/></g><path d="m325.546 198.16c0 3.743-3.035 6.778-6.778 6.778s-6.778-3.035-6.778-6.778v-6.414c0-3.743 3.035-6.778 6.778-6.778s6.778 3.035 6.778 6.778zm19.335-92.168c2.646-2.646 6.938-2.646 9.584 0s2.646 6.938 0 9.584l-26.767 26.767 11.924 15.898c2.237 2.983 1.633 7.215-1.35 9.452s-7.215 1.633-9.452-1.35l-15.099-20.131c-2.389-2.661-2.304-6.756.255-9.315zm30.357 28.92c3.743 0 6.778 3.035 6.778 6.778s-3.035 6.778-6.778 6.778h-6.414c-3.743 0-6.778-3.035-6.778-6.778s3.035-6.778 6.778-6.778zm-63.248-49.693c0-3.743 3.035-6.778 6.778-6.778s6.778 3.035 6.778 6.778v6.414c0 3.743-3.035 6.778-6.778 6.778s-6.778-3.035-6.778-6.778zm-49.693 63.248c-3.743 0-6.778-3.035-6.778-6.778s3.035-6.778 6.778-6.778h6.414c3.743 0 6.778 3.035 6.778 6.778s-3.035 6.778-6.778 6.778z" fill="#cf8c48"/><path d="m61.445 254.571h61.81v164.826l-26.964 32c-2.07 2.456-5.813 2.457-7.882 0l-26.964-32v-40.154l16.029-12.756-16.029-14.532v-9.339l16.029-14.531-16.029-12.756z" fill="#f0b16e"/><path d="m43.42 177.309h97.86c5.675 0 10.304 4.629 10.304 10.304v41.204c0 28.33-23.178 51.508-51.508 51.508h-15.452c-28.33 0-51.508-23.179-51.508-51.508v-41.204c0-5.675 4.629-10.304 10.304-10.304zm38.97 47.985h19.92c3.743 0 6.778-3.035 6.778-6.778s-3.035-6.778-6.778-6.778h-19.92c-3.743 0-6.778 3.035-6.778 6.778s3.035 6.778 6.778 6.778z" fill="#cf8c48"/></g></svg>