<svg id="Capa_1" enable-background="new 0 0 512 512" height="512" viewBox="0 0 512 512" width="512" xmlns="http://www.w3.org/2000/svg"><g><g><path d="m420.065 406.06h-328.13c-11.326 0-20.508-9.182-20.508-20.508v-270.707h369.146v270.707c0 11.326-9.182 20.508-20.508 20.508z" fill="#dff6fd"/></g><g><path d="m302.044 260.452 42.095-42.095c12.715-12.714 12.715-33.329 0-46.044-12.714-12.714-33.329-12.714-46.044 0l-42.095 42.096-42.095-42.095c-12.714-12.714-33.329-12.714-46.044 0s-12.715 33.329 0 46.044l42.095 42.095-42.095 42.095c-12.715 12.714-12.715 33.329 0 46.044 6.357 6.357 14.689 9.537 23.022 9.537 8.332 0 16.665-3.18 23.022-9.537l42.095-42.096 42.095 42.095c6.357 6.357 14.689 9.537 23.022 9.537s16.665-3.18 23.022-9.537c12.715-12.714 12.715-33.329 0-46.044z" fill="#fd8087"/></g><g><path d="m302.044 260.452 42.095-42.095c12.715-12.714 12.715-33.329 0-46.044-12.714-12.714-33.329-12.714-46.044 0l-28.31 28.31c.479 50.367-22.4 107.723-66.563 155.081 3.886-1.589 7.528-3.96 10.683-7.114l42.095-42.094 42.095 42.095c6.357 6.357 14.689 9.537 23.022 9.537 8.332 0 16.665-3.179 23.022-9.537 12.715-12.714 12.715-33.329 0-46.044z" fill="#fe646f"/></g><g><path d="m409.811 114.845v270.707c0 11.326-9.182 20.508-20.508 20.508h30.762c11.326 0 20.508-9.182 20.508-20.508v-270.707z" fill="#c8effe"/></g><g><path d="m440.573 114.845h-369.146v-61.524c0-11.326 9.182-20.508 20.508-20.508h328.129c11.326 0 20.508 9.182 20.508 20.508v61.524z" fill="#fea713"/></g><g><path d="m420.065 32.813h-30.762c11.326 0 20.508 9.182 20.508 20.508v61.524h30.762v-61.524c0-11.326-9.182-20.508-20.508-20.508z" fill="#fe9901"/></g><g><g><path d="m321.626 65.626c-9.061 0-16.406-7.345-16.406-16.406v-32.814c-.001-9.061 7.345-16.406 16.406-16.406 9.061 0 16.406 7.345 16.406 16.406v32.813c0 9.061-7.345 16.407-16.406 16.407z" fill="#bfbfbf"/></g><g><path d="m387.252 65.626c-9.061 0-16.406-7.345-16.406-16.406v-32.814c-.001-9.061 7.345-16.406 16.406-16.406 9.061 0 16.406 7.345 16.406 16.406v32.813c0 9.061-7.345 16.407-16.406 16.407z" fill="#bfbfbf"/></g><g><path d="m256 65.626c9.061 0 16.406-7.345 16.406-16.406v-32.814c0-9.061-7.345-16.406-16.406-16.406-9.061 0-16.406 7.345-16.406 16.406v32.813c0 9.061 7.345 16.407 16.406 16.407z" fill="#bfbfbf"/></g><g><path d="m190.374 65.626c9.061 0 16.406-7.345 16.406-16.406v-32.814c.001-9.061-7.345-16.406-16.406-16.406-9.061 0-16.406 7.345-16.406 16.406v32.813c0 9.061 7.345 16.407 16.406 16.407z" fill="#bfbfbf"/></g><g><path d="m124.748 65.626c9.061 0 16.406-7.345 16.406-16.406v-32.814c.001-9.061-7.345-16.406-16.406-16.406-9.061 0-16.406 7.345-16.406 16.406v32.813c0 9.061 7.345 16.407 16.406 16.407z" fill="#bfbfbf"/></g></g><g fill="#fd8087"><path d="m80.948 446.373c4.142 0 7.5-3.357 7.5-7.5s-3.358-7.5-7.5-7.5h-27.652c-4.142 0-7.5 3.357-7.5 7.5v65.626c0 4.143 3.358 7.5 7.5 7.5h27.652c4.142 0 7.5-3.357 7.5-7.5s-3.358-7.5-7.5-7.5h-20.152v-17.813h18.114c4.142 0 7.5-3.357 7.5-7.5s-3.358-7.5-7.5-7.5h-18.114v-17.812h20.152z"/><path d="m209.413 431.373h-17.439c-4.14 0-7.498 3.355-7.5 7.495l-.021 65.631c0 4.143 3.358 7.5 7.5 7.5s7.5-3.357 7.5-7.5v-23.98c3.617-.018 7.665-.035 9.96-.035 14.072 0 25.52-11.016 25.52-24.556.001-13.539-11.448-24.555-25.52-24.555zm0 34.111c-2.295 0-6.335.017-9.956.034l.012-19.145h9.944c5.703 0 10.52 4.376 10.52 9.556.001 5.179-4.817 9.555-10.52 9.555z"/><path d="m382.853 446.373c4.143 0 7.5-3.357 7.5-7.5s-3.357-7.5-7.5-7.5h-27.652c-4.143 0-7.5 3.357-7.5 7.5v65.626c0 4.143 3.357 7.5 7.5 7.5h27.652c4.143 0 7.5-3.357 7.5-7.5s-3.357-7.5-7.5-7.5h-20.152v-17.813h18.113c4.143 0 7.5-3.357 7.5-7.5s-3.357-7.5-7.5-7.5h-18.113v-17.812h20.152z"/><path d="m145.64 469.358 18.433-26.166c2.385-3.386 1.574-8.065-1.812-10.45-3.387-2.388-8.065-1.575-10.451 1.812l-15.338 21.772-15.314-21.768c-2.384-3.387-7.062-4.202-10.45-1.818-3.388 2.383-4.202 7.062-1.819 10.449l18.406 26.164-21.717 30.827c-2.385 3.386-1.574 8.065 1.812 10.45 1.313.926 2.82 1.37 4.313 1.37 2.357 0 4.677-1.108 6.138-3.182l18.622-26.434 18.593 26.43c1.46 2.075 3.782 3.186 6.141 3.186 1.491 0 2.997-.443 4.309-1.367 3.388-2.383 4.202-7.061 1.819-10.449z"/><path d="m258.196 431.373c-4.142 0-7.5 3.357-7.5 7.5v65.626c0 4.143 3.358 7.5 7.5 7.5 4.143 0 7.5-3.357 7.5-7.5v-65.626c0-4.142-3.357-7.5-7.5-7.5z"/><path d="m331.939 455.929c0-13.54-11.448-24.556-25.52-24.556h-17.439c-4.141 0-7.497 3.355-7.5 7.495l-.021 65.631c0 4.143 3.357 7.5 7.5 7.5s7.5-3.357 7.5-7.5v-20.441l22.352 25.396c1.482 1.685 3.553 2.545 5.633 2.545 1.76 0 3.527-.616 4.952-1.87 3.109-2.736 3.411-7.476.675-10.585l-17.427-19.801c11.072-2.68 19.295-12.339 19.295-23.814zm-25.52 9.555c-2.295 0-6.335.017-9.956.034l.012-19.145h9.944c5.703 0 10.52 4.376 10.52 9.556 0 5.179-4.817 9.555-10.52 9.555z"/><path d="m432.202 431.373h-18.586c-4.143 0-7.5 3.357-7.5 7.5v65.626c0 1.994.794 3.906 2.207 5.313 1.405 1.4 3.309 2.187 5.293 2.187h.028c.566-.002 13.942-.053 19.232-.146 19.311-.338 33.327-17.23 33.327-40.168.001-24.112-13.663-40.312-34.001-40.312zm.413 65.482c-2.613.046-7.387.082-11.499.106v-50.589h11.086c14.01 0 19.002 13.075 19.002 25.312 0 17.165-9.336 25.01-18.589 25.171z"/></g></g></svg>