<svg id="Flat" height="512" viewBox="0 0 512 512" width="512" xmlns="http://www.w3.org/2000/svg"><path d="m336 80v408h-312v-464h256z" fill="#e9eef2"/><circle cx="112" cy="112" fill="#ffd33a" r="48"/><path d="m112 48a64 64 0 1 0 64 64 64.072 64.072 0 0 0 -64-64zm0 112a48 48 0 1 1 48-48 48.051 48.051 0 0 1 -48 48z" fill="#ffb632"/><path d="m128 120a15.974 15.974 0 0 1 -8 13.84v2.16a8 8 0 0 1 -16 0 8 8 0 0 1 0-16h8a15.99 15.99 0 0 1 -8-29.84v-2.16a8 8 0 0 1 16 0 8 8 0 0 1 0 16h-8a16.021 16.021 0 0 1 16 16z" fill="#ffb632"/><g fill="#d0d2d4"><path d="m280 24 56 56h-56z"/><path d="m296 208h-224a8 8 0 0 1 0-16h224a8 8 0 0 1 0 16z"/><path d="m296 248h-224a8 8 0 0 1 0-16h224a8 8 0 0 1 0 16z"/><path d="m296 288h-224a8 8 0 0 1 0-16h224a8 8 0 0 1 0 16z"/></g><circle cx="184" cy="384" fill="#e9eef2" r="72"/><path d="m184 456a72 72 0 1 1 72-72 72.081 72.081 0 0 1 -72 72zm0-128a56 56 0 1 0 56 56 56.063 56.063 0 0 0 -56-56z" fill="#eb423f"/><path d="m221.657 346.343a8 8 0 0 0 -11.314 0l-26.343 26.343-26.343-26.343a8 8 0 0 0 -11.314 11.314l26.343 26.343-26.343 26.343a8 8 0 0 0 11.314 11.314l26.343-26.343 26.343 26.343a8 8 0 1 0 11.314-11.314l-26.343-26.343 26.343-26.343a8 8 0 0 0 0-11.314z" fill="#eb423f"/><path d="m360 440h96a32 32 0 0 1 32 32v16a0 0 0 0 1 0 0h-160a0 0 0 0 1 0 0v-16a32 32 0 0 1 32-32z" fill="#eb423f"/><path d="m376 408h64v32h-64z" fill="#d0d2d4"/><path d="m432 296h-48a203.851 203.851 0 0 1 0 112h48a203.851 203.851 0 0 1 0-112z" fill="#95573a"/><circle cx="408" cy="264" fill="#ad6643" r="40"/></svg>