<svg xmlns="http://www.w3.org/2000/svg" version="1.1" xmlns:xlink="http://www.w3.org/1999/xlink" width="512" height="512" x="0" y="0" viewBox="0 0 64 64" style="enable-background:new 0 0 512 512" xml:space="preserve" class=""><g><path d="M31 10h2v11h-2z" style="" fill="#d6d6d4" data-original="#d6d6d4" class=""></path><circle cx="32" cy="29.158" r="5" style="" fill="#2193e0" data-original="#4398d1" class="" opacity="1"></circle><circle cx="15" cy="22" r="5" style="" fill="#2193e0" data-original="#4398d1" class="" opacity="1"></circle><circle cx="50" cy="22" r="5" style="" fill="#2193e0" data-original="#4398d1" class="" opacity="1"></circle><path d="M52.517 31h-6.233a4 4 0 0 0-2.328.747L37 38h-9l-6.956-6.253A4 4 0 0 0 18.716 31H9a3 3 0 0 0-3 3v13h4L9 61h4l1-13h2l1 13h4l-1-18v-6l7 6-1 18h4l1-11h2l1 11h4l-1-18 8-6-3 15h2.5l-.5 9h4l.692-9h2.616L52 61h4l-.643-9H59l-3.535-18.561A3 3 0 0 0 52.517 31Z" style="" fill="#2193e0" data-original="#4398d1" class="" opacity="1"></path><path d="M17 61h4l-.45-8.091c-1.4.454-2.766.86-4.079 1.22ZM26 61h4l1-11h2l1 11h4l-.856-15.4a85.243 85.243 0 0 1-10.573 5.125ZM9 61h4l.469-6.1a90.525 90.525 0 0 1-4.1.884ZM55.464 33.439a2.982 2.982 0 0 0-.868-1.588 72.886 72.886 0 0 1-10.4 9.183L42 52h2.5l-.5 9h4l.692-9h2.616L52 61h4l-.643-9H59Z" style="" fill="#3a8ec7" data-original="#3a8ec7" class=""></path><path d="M9 37h2v10H9z" style="" fill="#2f76a6" data-original="#2f76a6" class=""></path><path d="M47 13a8 8 0 0 0-10 0 8 8 0 0 0-10 0 8 8 0 0 0-10 0A12.439 12.439 0 0 1 29.2 3h5.6A12.439 12.439 0 0 1 47 13Z" style="" fill="#27cdc3" data-original="#e8594a" class="" opacity="1"></path><path d="M34.8 3h-5.6c-.067 0-.132.008-.2.009a12.428 12.428 0 0 1 11.552 8.379A7.99 7.99 0 0 1 47 13 12.439 12.439 0 0 0 34.8 3Z" style="" fill="#27cdc3" data-original="#d94a3b" class="" opacity="1"></path></g></svg>