<svg xmlns="http://www.w3.org/2000/svg" version="1.1" xmlns:xlink="http://www.w3.org/1999/xlink" width="512" height="512" x="0" y="0" viewBox="0 0 64 64" style="enable-background:new 0 0 512 512" xml:space="preserve" class=""><g><g fill="#cce2ff"><path d="M18 26.68a3 3 0 0 1 2.48-3.3l1-.17a15.22 15.22 0 0 0 8.36-4.33l.13-.1V4a2 2 0 0 0-2-2H4a2 2 0 0 0-2 2v24a2 2 0 0 0 2 2h14.64a24 24 0 0 1-.64-3.32zM60 2H36a2 2 0 0 0-2 2v14.78l.13.1a15.22 15.22 0 0 0 8.36 4.33l1 .17A3 3 0 0 1 46 26.74a23.31 23.31 0 0 1-.65 3.26H60a2 2 0 0 0 2-2V4a2 2 0 0 0-2-2zM60 34H43.93a26 26 0 0 1-7.79 9.59L34 45.25V60a2 2 0 0 0 2 2h24a2 2 0 0 0 2-2V36a2 2 0 0 0-2-2zM28.38 44.06A25.68 25.68 0 0 1 20 34H4a2 2 0 0 0-2 2v24a2 2 0 0 0 2 2h24a2 2 0 0 0 2-2V45.25z" fill="#cce2ff" opacity="1" data-original="#cce2ff" class=""></path></g><path fill="#1f6acc" d="m57.58 51.19-7-5a1 1 0 0 0-1.16 0l-7 5 1.16 1.62 1.42-1V57h10v-5.2l1.42 1zM19.67 51.5l-.49-2.21a3 3 0 0 0-2.93-2.35h-4.31A3 3 0 0 0 9 49.29l-.48 2.21L7 52v3.55h2a1.5 1.5 0 0 0 3 0h6a1.5 1.5 0 0 0 3 0h3.24V53.8a2 2 0 0 0-1.78-2z" opacity="1" data-original="#1f6acc"></path><path fill="#f2f2f2" d="M12 48.94h4v2h-4zM48.5 54h3v3h-3z" opacity="1" data-original="#f2f2f2" class=""></path><path fill="#e65157" d="M20 11.5h-4.5V7h-4v4.5H7v4h4.5V20h4v-4.5H20z" opacity="1" data-original="#e65157" class=""></path><path fill="#27cdc3" d="m43 26.34-1-.17A18.34 18.34 0 0 1 32 21a18.34 18.34 0 0 1-10 5.17l-1 .17a21.81 21.81 0 0 0 9.15 15.3L32 43l2.3-1.78A21.76 21.76 0 0 0 43 26.36z" opacity="1" data-original="#44a649" class=""></path><path fill="#f2f2f2" d="M30.91 35.68a1 1 0 0 1-.71-.29l-2.47-2.48 1.41-1.41 1.77 1.77 4.95-5 1.41 1.41-5.65 5.66a1 1 0 0 1-.71.34z" opacity="1" data-original="#f2f2f2" class=""></path><path fill="#e65157" d="m50 10-.93-1a3 3 0 0 0-4.61 0 3.9 3.9 0 0 0-.41 4.56 13.81 13.81 0 0 0 3.51 3.93L50 19.28l2.44-1.85A13.81 13.81 0 0 0 56 13.5a3.9 3.9 0 0 0-.41-4.56 3 3 0 0 0-4.61 0z" opacity="1" data-original="#e65157" class=""></path></g></svg>