<svg xmlns="http://www.w3.org/2000/svg" version="1.1" xmlns:xlink="http://www.w3.org/1999/xlink" width="512" height="512" x="0" y="0" viewBox="0 0 511.999 511" style="enable-background:new 0 0 512 512" xml:space="preserve" class=""><g><path fill="#f2bb88" d="M501.383 399.316 323.69 489.414c-23.875 15.191-54.246 14.93-77.742-.203-11.027-7.113-14.492-7.8-72.484-36.473-25.77-12.61-49.246-16.625-87.516-21.34V320.094h126.903a29.702 29.702 0 0 1 21.007 8.707c1.743 1.746-11.578-11.574 57.082 57.07a25.951 25.951 0 0 1 7.606 19.066l1.223-.835 186.253-46.891c24.68-3.117 35.735 29.176 15.36 42.105zm0 0" opacity="1" data-original="#f2bb88" class=""></path><path fill="#f2d1a5" d="M291.652 421.55c-9.797 10.126-25.91 10.282-35.902.313l-47.46-47.468a13.496 13.496 0 0 0-9.552-3.958H85.95v-50.34h126.906a29.695 29.695 0 0 1 21.004 8.7c1.743 1.746-11.578-11.574 57.082 57.07 9.684 9.688 10.375 25.676.711 35.684zm0 0" opacity="1" data-original="#f2d1a5" class=""></path><path fill="#919196" d="M92.3 317.008v137.605c0 1.953-.187 3.88-.527 5.739h-.011c-2.711 14.562-15.555 25.68-30.88 25.68H31.419C14.137 486.031 0 471.894 0 454.612V317.008c0-15.399 11.223-28.297 25.895-30.922 1.8-.332 3.64-.496 5.523-.496h29.465c17.281 0 31.418 14.137 31.418 31.418zm0 0" opacity="1" data-original="#919196"></path><path fill="#a0a0a5" d="M92.3 317.008v137.605c0 1.953-.187 3.88-.527 5.739h-.011c-1.801.332-3.64.496-5.532.496H56.777c-17.28 0-31.418-14.137-31.418-31.418V291.824c0-1.953.184-3.879.536-5.738 1.8-.332 3.64-.496 5.523-.496h29.465c17.281 0 31.418 14.137 31.418 31.418zm0 0" opacity="1" data-original="#a0a0a5" class=""></path><path fill="#5a5f64" d="M64.73 436.54c0 10.26-8.316 18.581-18.582 18.581-10.261 0-18.582-8.32-18.582-18.582s8.32-18.582 18.582-18.582c10.266 0 18.582 8.32 18.582 18.582zm0 0" opacity="1" data-original="#5a5f64" class=""></path><path fill="#e09a59" d="M216.434 99.48c5.968 1.34 12.144-1.226 15.367-6.43a134.788 134.788 0 0 1 18.719-23.753c51.773-52.43 136.87-53.266 189.62-1.817 54.165 52.829 54.157 139.848-.027 192.668-53.687 52.34-139.02 50.86-190.945-3.226-20-20.836-31.992-46.527-35.957-73.18l-29.73-6.695c3.011 37.277 18.777 73.71 47.289 102.223 63.773 63.773 167.171 63.773 230.945 0 63.617-63.618 63.617-167.325 0-230.942-63.774-63.77-167.172-63.77-230.945 0a163.964 163.964 0 0 0-23.485 29.625c-5.18 8.375-.457 19.367 9.149 21.527zm0 0" opacity="1" data-original="#1ed688" class=""></path><path fill="#e09a59" d="M242.957 204.688h-78.918c-2.21 0-3.586-2.391-2.48-4.305l39.453-68.336c1.105-1.914 3.867-1.914 4.965 0l10.578 18.324 28.886 50.012c1.094 1.914-.28 4.304-2.484 4.304zm0 0" opacity="1" data-original="#1ed688" class=""></path><path fill="#7af4ab" d="M242.957 204.688h-57.746l31.344-54.317 28.886 50.012c1.094 1.914-.28 4.304-2.484 4.304zm0 0" opacity="1" data-original="#7af4ab" class=""></path><path fill="#d2d2d7" d="M366.145 165.125c.257 1.352 1.093 2.594 2.496 3.328 15.593 8.086 26.312 24.395 26.312 43.082v21.692c0 8.5-6.957 15.457-15.46 15.457h-66.075c-8.5 0-15.457-6.957-15.457-15.457v-21.692c0-18.687 10.71-34.996 26.305-43.082a4.704 4.704 0 0 0 2.457-3.137c.476-2.011-.344-4.273-2.457-5.37-.278-.141-.555-.294-.836-.454-15.14-8.215-25.47-24.27-25.47-42.629V95.18c0-8.508 6.958-15.465 15.458-15.465h66.074c8.504 0 15.461 6.957 15.461 15.465v21.683c0 18.696-10.719 34.996-26.312 43.082a4.655 4.655 0 0 0-.68.422 4.775 4.775 0 0 0-1.816 4.758zm0 0" opacity="1" data-original="#d2d2d7" class=""></path><path fill="#ebebf0" d="M366.145 165.125c.257 1.352 1.093 2.594 2.496 3.328 15.593 8.086 26.312 24.395 26.312 43.082v21.692c0 8.5-6.957 15.457-15.46 15.457H332.87c-8.5 0-15.457-6.957-15.457-15.457v-21.692c0-18.687 10.711-34.996 26.305-43.082a4.704 4.704 0 0 0 2.457-3.137c.476-2.011-.34-4.273-2.457-5.37-.278-.141-.555-.294-.836-.454-15.14-8.215-25.469-24.27-25.469-42.629V95.18c0-8.508 6.957-15.465 15.457-15.465h46.621c8.504 0 15.461 6.957 15.461 15.465v21.683c0 18.696-10.719 34.996-26.312 43.082a4.655 4.655 0 0 0-.68.422 4.775 4.775 0 0 0-1.816 4.758zm0 0" opacity="1" data-original="#ebebf0" class=""></path><path fill="#35e298" d="M394.195 125.402c-2.699 15.032-12.39 27.715-25.554 34.543a4.655 4.655 0 0 0-.68.422l-18.941 10.11a5.322 5.322 0 0 1-2.497.62 5.28 5.28 0 0 1-2.5-.62l-20.593-10.985c-12.743-6.914-22.07-19.375-24.711-34.09zm0 0" opacity="1" data-original="#35e298" class=""></path><path fill="#35e298" d="M346.234 186.234a4.866 4.866 0 0 1-4.863-4.863v-18.7a4.866 4.866 0 0 1 9.73 0v18.7a4.87 4.87 0 0 1-4.867 4.863zm0 0" opacity="1" data-original="#35e298" class=""></path><path fill="#e09a59" d="M346.18 165.316a4.726 4.726 0 0 1-2.457 3.137c-.578.297-1.157.61-1.72.945l-18.573-9.906c-12.743-6.914-22.07-19.375-24.711-34.09h19.453c2.64 14.715 11.973 27.176 24.71 34.09.282.16.56.313.837.453 2.117 1.098 2.933 3.36 2.46 5.371zm0 0" opacity="1" data-original="#1ed688" class=""></path><path fill="#2476ed" d="M410.586 81.688c0 3.582-1.469 6.851-3.832 9.218a13.026 13.026 0 0 1-9.227 3.832H295.38c-7.184 0-13.059-5.875-13.059-13.05a13 13 0 0 1 3.84-9.227 13.013 13.013 0 0 1 9.219-3.836h102.148c7.184 0 13.059 5.875 13.059 13.063zm0 0" opacity="1" data-original="#2476ed" class=""></path><path fill="#bc610d" d="M410.586 81.688H311.02c-7.184 0-13.06-5.883-13.06-13.063h99.567c7.184 0 13.059 5.875 13.059 13.063zm0 0" opacity="1" data-original="#5596fb" class=""></path><path fill="#35e298" d="M392.215 237.664H304.05c8.5-12.844 20.867-21.152 30.047-25.96 8.136-4.267 17.824-4.306 26.039-.204 16.402 8.188 28.164 21.402 32.078 26.164zm0 0" opacity="1" data-original="#35e298" class=""></path><path fill="#e09a59" d="M318.066 237.664h-14.015c3.863-5.848 8.55-10.762 13.36-14.828v10.39c0 1.536.226 3.036.655 4.438zm0 0" opacity="1" data-original="#1ed688" class=""></path><path fill="#2476ed" d="M410.586 246.719c0 3.594-1.469 6.855-3.832 9.222-2.371 2.368-5.633 3.836-9.227 3.836H295.38c-7.184 0-13.059-5.879-13.059-13.058 0-3.594 1.465-6.86 3.84-9.219a12.968 12.968 0 0 1 9.219-3.84h102.148c5.73 0 10.63 3.735 12.371 8.899.45 1.308.688 2.707.688 4.16zm0 0" opacity="1" data-original="#2476ed" class=""></path><path fill="#bc610d" d="M410.586 246.719c0 3.594-1.469 6.855-3.832 9.222-2.371 2.368-5.633 3.836-9.227 3.836h-98.879a12.997 12.997 0 0 1 3.148-13.383 13 13 0 0 1 9.224-3.835h98.878c.45 1.308.688 2.707.688 4.16zm0 0" opacity="1" data-original="#5596fb" class=""></path></g></svg>