<svg id="Capa_1" enable-background="new 0 0 512 512" viewBox="0 0 512 512" xmlns="http://www.w3.org/2000/svg"><g><g><g><g><path d="m436.88 512h-380.192c-8.534 0-15.453-6.918-15.453-15.453v-481.094c0-8.535 6.919-15.453 15.453-15.453h380.192c8.534 0 15.453 6.918 15.453 15.453v481.095c-.001 8.534-6.919 15.452-15.453 15.452z" fill="#eaf6ff"/></g><g><path d="m436.88 0h-25.755v455.34c0 8.534-6.918 15.453-15.453 15.453h-354.437v25.755c0 8.534 6.918 15.453 15.453 15.453h380.192c8.534 0 15.453-6.918 15.453-15.453v-481.095c-.001-8.534-6.919-15.453-15.453-15.453z" fill="#d8ecfe"/></g><g><path d="m350.938 318.055c-33.214-19.176-53.675-54.615-53.675-92.968v-32.245c0-3.68 1.964-7.081 5.151-8.922l76.449-44.137c3.187-1.84 7.114-1.84 10.302 0l76.449 44.137c3.187 1.84 5.151 5.241 5.151 8.922v32.245c0 38.353-20.461 73.792-53.675 92.968l-27.925 16.122c-3.187 1.84-7.114 1.84-10.302 0z" fill="#00f2a6"/></g><g><path d="m389.979 102.503h-286.39c-2.845 0-5.151-2.306-5.151-5.151v-42.237c0-2.845 2.306-5.151 5.151-5.151h286.39c2.845 0 5.151 2.306 5.151 5.151v42.237c0 2.845-2.306 5.151-5.151 5.151z" fill="#60b7ff"/></g><g><path d="m389.979 49.964h-32.284v21.333c0 2.845-2.306 5.151-5.151 5.151h-254.106v20.904c0 2.845 2.306 5.151 5.151 5.151h286.39c2.845 0 5.151-2.306 5.151-5.151v-42.237c0-2.845-2.306-5.151-5.151-5.151z" fill="#26a6fe"/></g><g><g><path d="m350.938 318.055c-33.214-19.176-53.675-54.615-53.675-92.968v-32.245c0-3.68 1.964-7.081 5.151-8.922l76.449-44.137c3.187-1.84 7.114-1.84 10.302 0l76.449 44.137c3.187 1.84 5.151 5.241 5.151 8.922v32.245c0 38.353-20.461 73.792-53.675 92.968l-27.925 16.122c-3.187 1.84-7.114 1.84-10.302 0z" fill="#00f2a6"/></g><g><path d="m465.614 183.92-46.358-26.765v37.026c0 38.353-20.461 73.792-53.675 92.968l-31.968 18.456c5.291 4.665 11.083 8.845 17.326 12.449l27.925 16.122c3.187 1.84 7.114 1.84 10.302 0l27.925-16.122c33.214-19.176 53.675-54.615 53.675-92.968v-32.245c-.001-3.68-1.965-7.081-5.152-8.921z" fill="#05e39c"/></g><g><path d="m366.391 291.29c-23.652-13.656-38.222-38.892-38.222-66.203v-17.375c0-1.84.982-3.541 2.575-4.461l50.694-29.268c1.594-.92 3.557-.92 5.151 0l50.695 29.268c1.594.92 2.576 2.621 2.576 4.461v17.376c0 27.311-14.571 52.548-38.224 66.203l-15.047 8.687c-1.594.92-3.557.92-5.151 0z" fill="#fff"/></g><g><path d="m437.284 203.251-18.028-10.408v1.34c0 38.353-20.461 73.792-53.675 92.968l-3.039 1.755c1.256.828 2.536 1.628 3.85 2.386l15.047 8.688c1.594.92 3.557.92 5.151 0l15.047-8.687c23.653-13.655 38.224-38.892 38.224-66.203v-17.376c-.002-1.843-.983-3.543-2.577-4.463z" fill="#f8f6f6"/></g></g></g></g><g><g fill="#60b7ff"><path d="m259.439 391.379c-.026-.07-.054-.139-.082-.208-1.415-3.438-4.729-5.657-8.446-5.657h-.013c-3.721.005-7.035 2.234-8.442 5.678-.023.056-.045.112-.066.168l-27.078 71.097c-1.475 3.871.469 8.204 4.34 9.678 3.865 1.472 8.203-.468 9.678-4.339l4.904-12.876h33.154l4.851 12.855c1.133 3.003 3.987 4.854 7.018 4.854.88 0 1.775-.156 2.647-.485 3.875-1.462 5.831-5.79 4.368-9.665zm-19.493 48.541 10.94-28.724 10.84 28.724z"/><path d="m414.146 463.156-13.442-70.338c-.829-4.059-4.297-7.056-8.433-7.289-4.155-.229-7.917 2.357-9.195 6.297-.028.085-.054.172-.079.258l-14.349 50.334-14.873-50.412c-.026-.089-.054-.178-.083-.266-1.32-3.928-5.097-6.476-9.266-6.203-4.135.277-7.57 3.313-8.369 7.469l-12.675 70.224c-.735 4.076 1.973 7.977 6.049 8.713 4.07.732 7.978-1.972 8.713-6.049l8.271-45.827 13.593 46.07c.026.089.055.178.084.267 1.252 3.727 4.725 6.222 8.652 6.222h.046c3.947-.02 7.418-2.555 8.638-6.308.028-.087.055-.174.08-.262l13.124-46.038 8.782 45.952c.777 4.07 4.715 6.735 8.774 5.959 4.069-.776 6.737-4.705 5.958-8.773z"/><path d="m196.523 457.566c-6.188.035-12.849.059-17.71.061v-64.613c0-4.142-3.357-7.5-7.5-7.5s-7.5 3.358-7.5 7.5v72.052c0 3.653 2.632 6.774 6.231 7.392.543.093 1.008.173 8.86.173 3.842 0 9.452-.019 17.702-.065 4.142-.023 7.481-3.4 7.458-7.542-.022-4.143-3.42-7.469-7.541-7.458z"/><path d="m305.009 385.514c-4.143 0-7.5 3.358-7.5 7.5v72.113c0 4.142 3.357 7.5 7.5 7.5s7.5-3.358 7.5-7.5v-72.113c0-4.142-3.358-7.5-7.5-7.5z"/><path d="m150.38 449.203c-3.174-2.663-7.902-2.248-10.565.925-.678.807-1.407 1.56-2.17 2.239-3.919 3.49-8.898 5.26-14.801 5.26-15.746 0-28.556-12.811-28.556-28.557s12.81-28.556 28.556-28.556c5.724 0 11.243 1.685 15.962 4.873 3.433 2.319 8.095 1.417 10.413-2.017 2.318-3.432 1.416-8.094-2.017-10.413-7.208-4.869-15.631-7.443-24.358-7.443-24.017 0-43.556 19.539-43.556 43.556s19.539 43.557 43.556 43.557c9.555 0 18.123-3.132 24.775-9.058 1.303-1.16 2.543-2.438 3.686-3.8 2.663-3.173 2.249-7.904-.925-10.566z"/></g><g><g><path d="m256.056 182.116h-157.618c-4.143 0-7.5-3.358-7.5-7.5s3.357-7.5 7.5-7.5h157.618c4.143 0 7.5 3.358 7.5 7.5s-3.358 7.5-7.5 7.5z" fill="#60b7ff"/></g><g><path d="m256.056 231.621h-157.618c-4.143 0-7.5-3.358-7.5-7.5s3.357-7.5 7.5-7.5h157.618c4.143 0 7.5 3.358 7.5 7.5s-3.358 7.5-7.5 7.5z" fill="#60b7ff"/></g><g><path d="m256.056 281.126h-157.618c-4.143 0-7.5-3.358-7.5-7.5s3.357-7.5 7.5-7.5h157.618c4.143 0 7.5 3.358 7.5 7.5s-3.358 7.5-7.5 7.5z" fill="#60b7ff"/></g><g><path d="m256.056 330.631h-157.618c-4.143 0-7.5-3.358-7.5-7.5s3.357-7.5 7.5-7.5h157.618c4.143 0 7.5 3.358 7.5 7.5s-3.358 7.5-7.5 7.5z" fill="#60b7ff"/></g></g><g><path d="m380.815 262.362c-2.051 0-4.015-.84-5.431-2.328l-20.603-21.634c-2.857-3-2.741-7.747.258-10.604 3-2.855 7.748-2.741 10.604.259l14.982 15.731 23.43-26.359c2.751-3.096 7.492-3.375 10.588-.623s3.375 7.492.623 10.588l-28.845 32.451c-1.394 1.567-3.38 2.48-5.477 2.516-.043.002-.086.003-.129.003z" fill="#05e39c"/></g></g></g><g/><g/><g/><g/><g/><g/><g/><g/><g/><g/><g/><g/><g/><g/><g/></svg>