<svg id="Capa_1" enable-background="new 0 0 512 512" viewBox="0 0 512 512" xmlns="http://www.w3.org/2000/svg"><g><g><g><g><g><g><path d="m245.096 451.705c7.835 5.146 12.925 14.009 12.925 23.734 0 15.648-12.731 28.379-28.379 28.379v1.03h218.005c6.76 0 12.24-5.48 12.24-12.241v-40.903h-214.791z" fill="#c4e2ff"/></g><g><g><path d="m418.68 451.705v15.387c0 6.76-5.48 12.241-12.24 12.241h-148.693c-1.904 13.812-13.778 24.486-28.106 24.486v1.03h218.005c6.76 0 12.24-5.48 12.24-12.241v-40.903z" fill="#b3dafe"/></g></g><g fill="#c4e2ff"><path d="m145.587 231.332h9.673v-16.755z"/><path d="m155.26 169.406v-110.142h-40.903c-6.76 0-12.24 5.48-12.24 12.24v97.901h53.143z"/></g></g><g><g><path d="m445.549 10.736 62.866 62.866c2.296 2.296 3.585 5.409 3.585 8.655v358.238c0 6.76-5.48 12.241-12.241 12.241h-333.289c-6.76 0-12.241-5.48-12.241-12.241v-421.103c0-6.76 5.48-12.241 12.241-12.241h270.423c3.247 0 6.36 1.29 8.656 3.585z" fill="#eaf6ff"/></g><path d="m266.271 384.748h-31.371v15h31.371c4.142 0 7.5-3.357 7.5-7.5s-3.358-7.5-7.5-7.5z" fill="#05e39c"/><g><path d="m508.415 73.602-37.622-37.622v363.308c0 6.76-5.48 12.241-12.241 12.241h-304.322v28.967c0 6.76 5.48 12.241 12.241 12.241h333.289c6.76 0 12.241-5.48 12.241-12.241v-358.238c-.001-3.247-1.291-6.36-3.586-8.656z" fill="#d8ecfe"/></g><path d="m235.899 446.712v-95.697c0-44.792-36.648-81.44-81.44-81.44l-2.241-1h-44.882l-2.745 1c-44.792 0-81.44 36.648-81.44 81.44v95.697c-13.194 2.889-23.151 14.699-23.151 28.727 0 16.175 13.234 29.409 29.409 29.409h200.233c16.175 0 29.409-13.234 29.409-29.409 0-14.028-9.957-25.838-23.152-28.727z" fill="#ffbd86"/><g><path d="m508.415 73.602-62.866-62.866c-1.045-1.045-2.266-1.87-3.585-2.471v56.682c0 6.76 5.48 12.241 12.241 12.241h56.682c-.602-1.32-1.427-2.541-2.472-3.586z" fill="#c4e2ff"/></g><g><path d="m470.793 77.187h40.093c-.601-1.32-1.426-2.54-2.471-3.585l-37.622-37.622z" fill="#b3dafe"/></g></g><g><g><g><circle cx="333.115" cy="274.493" fill="#00f2a6" r="79.473"/></g><g><path d="m360.462 199.851c13.161 14.181 21.22 33.164 21.22 54.038 0 43.892-35.581 79.473-79.473 79.473-9.61 0-18.821-1.706-27.347-4.831 14.514 15.638 35.235 25.435 58.253 25.435 43.892 0 79.473-35.581 79.473-79.473 0-34.282-21.707-63.494-52.126-74.642z" fill="#05e39c"/></g></g></g><g><g><path d="m112.327 231.362h34.397l27.426-47.504c3.965-6.868-.991-15.453-8.922-15.453h-71.405c-7.93 0-12.887 8.585-8.922 15.453z" fill="#ffbd86"/></g><g><path d="m165.229 168.406h-13.062l-36.348 62.956h30.905l27.426-47.504c3.966-6.867-.991-15.452-8.921-15.452z" fill="#f6a96c"/></g><g><path d="m83.168 247.904v4.1c0 9.705 7.867 17.572 17.572 17.572h57.573c9.705 0 17.572-7.867 17.572-17.572v-4.1c0-9.705-7.867-17.572-17.572-17.572h-57.573c-9.705 0-17.572 7.867-17.572 17.572z" fill="#0ed290"/></g><g><path d="m158.312 230.332h-13.334v1.068c0 9.705-7.867 17.572-17.572 17.572h-44.238v3.032c0 9.705 7.867 17.572 17.572 17.572h57.573c9.705 0 17.572-7.867 17.572-17.572v-4.1c-.001-9.705-7.868-17.572-17.573-17.572z" fill="#00c285"/></g></g><g><g><g><g><path d="m263.728 58.289-31.665-18.282c-.705-.407-1.549-.433-2.288-.119v77.827c.739.314 1.583.288 2.288-.119l9.777-5.645c14.341-8.28 23.176-23.582 23.176-40.142v-11.289c0-.921-.491-1.771-1.288-2.231z" fill="#0593fc"/></g><g><path d="m229.487 40.007-31.665 18.282c-.797.46-1.288 1.311-1.288 2.231v11.289c0 16.56 8.835 31.862 23.176 40.142l9.777 5.645c.398.23.843.345 1.288.345v-78.279c-.445 0-.89.115-1.288.345z" fill="#60b7ff"/></g></g></g></g></g></g><g><path d="m235.899 446.712v-95.697c0-30.553-17.059-57.306-42.116-71.234v173.642c0 5.69-4.612 10.302-10.302 10.302h-181.01c-1.577 3.596-2.471 7.553-2.471 11.714 0 16.175 13.234 29.409 29.409 29.409h200.233c16.175 0 29.409-13.234 29.409-29.409 0-14.028-9.957-25.838-23.152-28.727z" fill="#f6a96c"/></g></g><g><g><path d="m324.286 313.105c-1.978 0-3.883-.782-5.294-2.188l-34.05-33.941c-2.934-2.924-2.941-7.673-.017-10.606 2.924-2.935 7.673-2.941 10.607-.017l27.938 27.848 41.517-55.322c2.485-3.312 7.188-3.983 10.5-1.497s3.983 7.188 1.497 10.501l-46.698 62.226c-1.303 1.736-3.296 2.823-5.462 2.979-.18.011-.36.017-.538.017z" fill="#fff"/></g><g><g><path d="m215.36 215.148c-4.142 0-7.5-3.357-7.5-7.5v-50.91c0-4.143 3.358-7.5 7.5-7.5h50.911c4.142 0 7.5 3.357 7.5 7.5s-3.358 7.5-7.5 7.5h-43.411v43.41c0 4.143-3.358 7.5-7.5 7.5z" fill="#05e39c"/></g><g><path d="m450.87 215.148c-4.142 0-7.5-3.357-7.5-7.5v-43.41h-43.411c-4.142 0-7.5-3.357-7.5-7.5s3.358-7.5 7.5-7.5h50.911c4.142 0 7.5 3.357 7.5 7.5v50.91c0 4.143-3.358 7.5-7.5 7.5z" fill="#05e39c"/></g><g><path d="m450.87 399.748h-50.911c-4.142 0-7.5-3.357-7.5-7.5s3.358-7.5 7.5-7.5h43.411v-43.411c0-4.143 3.358-7.5 7.5-7.5s7.5 3.357 7.5 7.5v50.911c0 4.143-3.358 7.5-7.5 7.5z" fill="#05e39c"/></g></g><path d="m140.963 385.105c-10.224-3.771-19.712-7.888-22.177-8.971-2.418-1.79-3.59-4.638-3.148-7.718.563-3.923 3.593-7.076 8.105-8.435 12.619-3.804 24.052 5.346 24.296 5.544 3.17 2.639 7.88 2.222 10.539-.938 2.665-3.171 2.255-7.902-.916-10.567-.493-.414-8.773-7.237-20.638-9.354v-11.429c0-4.143-3.358-7.5-7.5-7.5s-7.5 3.357-7.5 7.5v11.709c-.863.193-1.731.408-2.608.672-10.096 3.041-17.233 10.96-18.627 20.667-1.299 9.048 2.62 17.749 10.227 22.709.332.216.679.405 1.041.566.459.205 11.394 5.072 23.714 9.617 8.651 3.19 13.051 8.168 12.071 13.656-.978 5.478-7.386 11.143-16.417 11.143-8.637 0-16.972-3.508-22.297-9.385-2.781-3.069-7.524-3.303-10.594-.521s-3.303 7.524-.521 10.594c6.107 6.74 14.687 11.436 24.011 13.351v11.77c0 4.143 3.358 7.5 7.5 7.5s7.5-3.357 7.5-7.5v-11.259c12.932-2.099 23.487-11.311 25.584-23.054 1.814-10.153-2.921-23.461-21.645-30.367z" fill="#fff"/><g><g><path d="m401.558 68.415h-103.639c-4.142 0-7.5-3.357-7.5-7.5s3.358-7.5 7.5-7.5h103.639c4.142 0 7.5 3.357 7.5 7.5s-3.358 7.5-7.5 7.5z" fill="#60b7ff"/></g><g><path d="m401.558 100.543h-103.639c-4.142 0-7.5-3.357-7.5-7.5s3.358-7.5 7.5-7.5h103.639c4.142 0 7.5 3.357 7.5 7.5s-3.358 7.5-7.5 7.5z" fill="#60b7ff"/></g></g></g></g><g/><g/><g/><g/><g/><g/><g/><g/><g/><g/><g/><g/><g/><g/><g/></svg>